<svg width="30" height="30" viewBox="0 0 30 30" fill="none" xmlns="http://www.w3.org/2000/svg">
<rect width="30" height="30" rx="10" fill="#FC3F1E"/>
<rect width="30" height="30" rx="10" fill="#D64E3E" fill-opacity="0.5"/>
<path d="M14.588 6.819H22.321V8.909H14.588V6.819ZM13.942 13.412H24.449V15.578H13.942V13.412ZM17.97 11.208H20.25V21.164C20.25 21.734 20.1803 22.1837 20.041 22.513C19.9017 22.8423 19.6483 23.0957 19.281 23.273C18.901 23.4503 18.445 23.5643 17.913 23.615C17.3937 23.6783 16.7857 23.7037 16.089 23.691C16.0383 23.3743 15.9307 23.0007 15.766 22.57C15.6013 22.1393 15.4367 21.7657 15.272 21.449C15.7533 21.4617 16.2157 21.4743 16.659 21.487C17.1023 21.4997 17.4063 21.4997 17.571 21.487C17.723 21.487 17.8243 21.4617 17.875 21.411C17.9383 21.3603 17.97 21.2717 17.97 21.145V11.208ZM21.485 6.819H22.055L22.511 6.686L23.993 7.807C23.6257 8.36433 23.2077 8.947 22.739 9.555C22.283 10.1503 21.8017 10.7267 21.295 11.284C20.7883 11.8287 20.288 12.31 19.794 12.728C19.642 12.5253 19.433 12.291 19.167 12.025C18.901 11.759 18.673 11.55 18.483 11.398C18.863 11.0433 19.2493 10.619 19.642 10.125C20.0347 9.631 20.3893 9.13067 20.706 8.624C21.0353 8.11733 21.295 7.674 21.485 7.294V6.819ZM6.703 9.631H12.859V11.759H6.703V9.631ZM9.268 5.85L11.396 6.078C11.2187 7.09133 11.016 8.15533 10.788 9.27C10.5727 10.3847 10.3447 11.4993 10.104 12.614C9.86333 13.716 9.62267 14.7863 9.382 15.825C9.14133 16.851 8.907 17.7883 8.679 18.637L6.817 17.668C7.03233 16.9207 7.24767 16.0657 7.463 15.103C7.691 14.1403 7.91267 13.127 8.128 12.063C8.34333 10.9863 8.546 9.92233 8.736 8.871C8.93867 7.807 9.116 6.8 9.268 5.85ZM7.824 17.345L9.059 15.73C9.71767 16.148 10.408 16.6167 11.13 17.136C11.8647 17.6553 12.5423 18.181 13.163 18.713C13.7963 19.245 14.2967 19.7517 14.664 20.233L13.296 22.076C12.9413 21.5947 12.46 21.0753 11.852 20.518C11.244 19.948 10.5853 19.3843 9.876 18.827C9.17933 18.2697 8.49533 17.7757 7.824 17.345ZM12.061 9.631H12.441L12.84 9.593L14.189 9.821C14.0497 12.291 13.7393 14.4253 13.258 16.224C12.7893 18.01 12.1307 19.5173 11.282 20.746C10.446 21.9747 9.39467 22.9817 8.128 23.767C7.98867 23.4883 7.786 23.1653 7.52 22.798C7.254 22.4433 7.00067 22.1647 6.76 21.962C7.83667 21.392 8.74867 20.556 9.496 19.454C10.2433 18.352 10.826 17.0093 11.244 15.426C11.6747 13.8427 11.947 12.0567 12.061 10.068V9.631Z" fill="white"/>
</svg>
