<svg width="58" height="29" viewBox="0 0 58 29" fill="none" xmlns="http://www.w3.org/2000/svg">
<rect x="29.5" y="0.307617" width="28" height="28" rx="10" fill="#1E1E1E"/>
<path d="M41.2002 4.85466C40.6518 4.85466 39.9503 4.72434 39.4306 4.8975C38.4511 5.22386 37.5827 5.92018 36.872 6.67735C36.118 7.48075 35.603 8.67465 35.155 9.68401C34.5789 10.9822 34.5051 12.4624 34.5051 13.8668C34.5051 15.1555 34.4097 16.428 35.0461 17.5823C35.7592 18.876 36.7751 19.9346 37.9541 20.7837C38.5491 21.2122 39.2556 21.737 39.9303 22.0144C40.7617 22.3563 41.6596 22.5516 42.5415 22.696C43.4628 22.8468 44.4037 22.8011 45.3331 22.8011C46.1205 22.8011 46.8176 22.7188 47.5685 22.4779C50.6877 21.4771 52.1857 17.9826 52.4528 14.8756C52.6165 12.9707 52.4 10.9762 51.0739 9.55159C50.3057 8.7263 49.6048 7.86237 48.6656 7.23428C47.8684 6.70114 47.1534 6.0254 46.2648 5.65695C45.4892 5.33534 44.6112 5.3201 43.7889 5.27139C42.7103 5.2075 41.7597 5.23312 40.7043 5.48559C40.2496 5.59435 39.6397 5.62843 39.239 5.83611" stroke="#FFFDFA" stroke-width="1.5" stroke-linecap="round"/>
<path d="M41.5596 5.95404C41.0881 7.45652 40.3115 12.2535 39.9551 13.7914C39.6337 15.1783 39.5176 16.5277 39.5176 17.9439C39.5176 19.0087 39.6315 19.9566 40.4801 20.7454C41.0592 21.2837 41.5961 21.8446 42.162 22.3901" stroke="#FFFDFA" stroke-width="1.5" stroke-linecap="round"/>
<path d="M43.5 5.81663C43.5 5.75489 43.5823 6.02803 43.6111 6.09518C43.7391 6.39321 43.8691 6.67919 44.0341 6.96562C44.4349 7.66105 44.7599 8.49183 45.0212 9.2365C45.575 10.8149 45.7799 12.405 46.1578 14.0181C46.5245 15.583 46.4996 17.1384 46.4996 18.7301C46.4996 19.464 46.4708 19.9738 46.098 20.6489C45.7671 21.2481 45.3979 21.8291 45.0212 22.4053C44.9371 22.5339 44.8757 22.7419 44.7306 22.8076" stroke="#FFFDFA" stroke-width="1.5" stroke-linecap="round"/>
<path d="M34.5 12.8076C34.9045 12.8076 35.469 12.4251 35.8071 12.2413C36.4435 11.8952 37.2717 11.6093 37.9988 11.4671C40.171 11.0424 42.3196 10.8076 44.5422 10.8076C45.0071 10.8076 45.472 10.8076 45.9369 10.8076C46.4033 10.8076 46.8343 10.9708 47.2958 10.9976C48.042 11.0409 48.7111 11.287 49.4158 11.485C49.9402 11.6324 50.3604 11.7959 50.8226 12.0334C51.0601 12.1555 51.2666 12.3156 51.5 12.4205" stroke="#FFFDFA" stroke-width="1.5" stroke-linecap="round"/>
<path d="M35.5 18.2326C35.5078 18.1826 35.7619 18.1189 35.8333 18.0921C36.149 17.9735 36.5602 18.0026 36.8968 18.0026C38.1941 18.0026 39.4726 17.6451 40.7103 17.3734C41.8441 17.1244 43.0365 16.901 44.2143 16.8559C45.1309 16.8207 46.216 16.7561 47.119 16.8814C47.7274 16.9658 48.3113 16.9707 48.8413 17.2552C49.1946 17.4448 49.5583 17.6198 49.9286 17.7854C50.2352 17.9225 50.5459 18.2071 50.8016 18.3924C51.0012 18.537 51.3702 18.5987 51.5 18.8076" stroke="#FFFDFA" stroke-width="1.5" stroke-linecap="round"/>
<rect y="0.307617" width="28" height="28" rx="10" fill="#FC3F1E"/>
<rect y="0.307617" width="28" height="28" rx="10" fill="#E9472E" fill-opacity="0.8"/>
<path d="M13.2989 6.12662H21.0319V8.21662H13.2989V6.12662ZM12.6529 12.7196H23.1599V14.8856H12.6529V12.7196ZM16.6809 10.5156H18.9609V20.4716C18.9609 21.0416 18.8913 21.4913 18.7519 21.8206C18.6126 22.15 18.3593 22.4033 17.9919 22.5806C17.6119 22.758 17.1559 22.872 16.6239 22.9226C16.1046 22.986 15.4966 23.0113 14.7999 22.9986C14.7493 22.682 14.6416 22.3083 14.4769 21.8776C14.3123 21.447 14.1476 21.0733 13.9829 20.7566C14.4643 20.7693 14.9266 20.782 15.3699 20.7946C15.8133 20.8073 16.1173 20.8073 16.2819 20.7946C16.4339 20.7946 16.5353 20.7693 16.5859 20.7186C16.6493 20.668 16.6809 20.5793 16.6809 20.4526V10.5156ZM20.1959 6.12662H20.7659L21.2219 5.99362L22.7039 7.11462C22.3366 7.67195 21.9186 8.25462 21.4499 8.86262C20.9939 9.45795 20.5126 10.0343 20.0059 10.5916C19.4993 11.1363 18.9989 11.6176 18.5049 12.0356C18.3529 11.833 18.1439 11.5986 17.8779 11.3326C17.6119 11.0666 17.3839 10.8576 17.1939 10.7056C17.5739 10.351 17.9603 9.92662 18.3529 9.43262C18.7456 8.93862 19.1003 8.43828 19.4169 7.93162C19.7463 7.42495 20.0059 6.98162 20.1959 6.60162V6.12662ZM5.41394 8.93862H11.5699V11.0666H5.41394V8.93862ZM7.97894 5.15762L10.1069 5.38562C9.9296 6.39895 9.72694 7.46295 9.49894 8.57762C9.2836 9.69228 9.0556 10.807 8.81494 11.9216C8.57427 13.0236 8.3336 14.094 8.09294 15.1326C7.85227 16.1586 7.61794 17.096 7.38994 17.9446L5.52794 16.9756C5.74327 16.2283 5.9586 15.3733 6.17394 14.4106C6.40194 13.448 6.6236 12.4346 6.83894 11.3706C7.05427 10.294 7.25694 9.22995 7.44694 8.17862C7.6496 7.11462 7.82694 6.10762 7.97894 5.15762ZM6.53494 16.6526L7.76994 15.0376C8.4286 15.4556 9.11894 15.9243 9.84094 16.4436C10.5756 16.963 11.2533 17.4886 11.8739 18.0206C12.5073 18.5526 13.0076 19.0593 13.3749 19.5406L12.0069 21.3836C11.6523 20.9023 11.1709 20.383 10.5629 19.8256C9.95494 19.2556 9.29627 18.692 8.58694 18.1346C7.89027 17.5773 7.20627 17.0833 6.53494 16.6526ZM10.7719 8.93862H11.1519L11.5509 8.90062L12.8999 9.12862C12.7606 11.5986 12.4503 13.733 11.9689 15.5316C11.5003 17.3176 10.8416 18.825 9.99294 20.0536C9.15694 21.2823 8.1056 22.2893 6.83894 23.0746C6.6996 22.796 6.49694 22.473 6.23094 22.1056C5.96494 21.751 5.7116 21.4723 5.47094 21.2696C6.5476 20.6996 7.4596 19.8636 8.20694 18.7616C8.95427 17.6596 9.53694 16.317 9.95494 14.7336C10.3856 13.1503 10.6579 11.3643 10.7719 9.37562V8.93862Z" fill="white"/>
</svg>
