<svg width="25" height="25" viewBox="0 0 25 25" fill="none" xmlns="http://www.w3.org/2000/svg">
<g clip-path="url(#clip0_279_140)">
<path d="M12.1699 24.5469C18.7973 24.5469 24.1699 19.1743 24.1699 12.5469C24.1699 5.91946 18.7973 0.546875 12.1699 0.546875C5.54251 0.546875 0.169922 5.91946 0.169922 12.5469C0.169922 19.1743 5.54251 24.5469 12.1699 24.5469Z" fill="url(#paint0_linear_279_140)"/>
<path fill-rule="evenodd" clip-rule="evenodd" d="M5.60096 12.4198C9.0992 10.8957 11.4319 9.89091 12.5991 9.40544C15.9316 8.01933 16.6241 7.77854 17.0754 7.77059C17.1747 7.76884 17.3967 7.79345 17.5404 7.91011C17.6618 8.00862 17.6952 8.14169 17.7112 8.23508C17.7272 8.32848 17.7471 8.54124 17.7313 8.70748C17.5507 10.605 16.7693 15.2097 16.3717 17.3349C16.2035 18.2341 15.8723 18.5356 15.5517 18.5652C14.8548 18.6293 14.3256 18.1046 13.6507 17.6622C12.5945 16.9699 11.9979 16.5389 10.9727 15.8633C9.7879 15.0826 10.5559 14.6534 11.2311 13.9522C11.4078 13.7686 14.4782 10.9759 14.5377 10.7225C14.5451 10.6908 14.552 10.5727 14.4818 10.5104C14.4117 10.448 14.3081 10.4693 14.2334 10.4863C14.1274 10.5103 12.4402 11.6255 9.17171 13.8319C8.69279 14.1607 8.25901 14.3209 7.87036 14.3125C7.44189 14.3033 6.6177 14.0703 6.005 13.8711C5.2535 13.6268 4.65623 13.4977 4.70824 13.0828C4.73533 12.8667 5.0329 12.6457 5.60096 12.4198Z" fill="white"/>
</g>
<defs>
<linearGradient id="paint0_linear_279_140" x1="1200.17" y1="0.546875" x2="1200.17" y2="2382.75" gradientUnits="userSpaceOnUse">
<stop stop-color="#2AABEE"/>
<stop offset="1" stop-color="#229ED9"/>
</linearGradient>
<clipPath id="clip0_279_140">
<rect width="24" height="24" fill="white" transform="translate(0.169922 0.546875)"/>
</clipPath>
</defs>
</svg>
