<svg width="286" height="100" viewBox="0 0 286 100" fill="none" xmlns="http://www.w3.org/2000/svg">
<path d="M52.9213 47.7285V39.8885H44.1013V47.7285H40.1253V29.0525H44.1013V36.3885H52.9213V29.0525H56.9253V47.7285H52.9213ZM59.6538 40.9525C59.6538 37.0325 62.5378 33.8685 66.6538 33.8685C70.6858 33.8685 73.4298 36.8925 73.4298 41.3165V42.1005H63.3778C63.6018 43.8085 64.9738 45.2365 67.2698 45.2365C68.5298 45.2365 70.0138 44.7325 70.8818 43.8925L72.4498 46.1885C71.0778 47.4485 68.9778 48.0645 66.8778 48.0645C62.7618 48.0645 59.6538 45.2925 59.6538 40.9525ZM66.6538 36.6965C64.4418 36.6965 63.4898 38.3485 63.3218 39.6925H69.9858C69.9018 38.4045 69.0058 36.6965 66.6538 36.6965ZM75.9984 47.7285V29.0525H79.5544V47.7285H75.9984ZM83.0804 47.7285V29.0525H86.6364V47.7285H83.0804ZM96.4344 48.0645C91.9824 48.0645 89.2944 44.8165 89.2944 40.9525C89.2944 37.1165 91.9824 33.8685 96.4344 33.8685C100.914 33.8685 103.602 37.1165 103.602 40.9525C103.602 44.8165 100.914 48.0645 96.4344 48.0645ZM96.4344 44.9005C98.6464 44.9005 99.9064 43.0805 99.9064 40.9525C99.9064 38.8525 98.6464 37.0325 96.4344 37.0325C94.2224 37.0325 92.9904 38.8525 92.9904 40.9525C92.9904 43.0805 94.2224 44.9005 96.4344 44.9005Z" fill="black"/>
<path d="M180.413 42.7866L183.717 43.5426C183.325 44.9986 182.849 46.4453 182.289 47.8826C181.729 49.3013 181.113 50.6359 180.441 51.8866C179.788 53.1186 179.088 54.2013 178.341 55.1346C178.136 54.9293 177.865 54.6866 177.529 54.4066C177.212 54.1266 176.876 53.8559 176.521 53.5946C176.185 53.3146 175.886 53.0906 175.625 52.9226C176.353 52.1199 177.016 51.1773 177.613 50.0946C178.21 49.0119 178.742 47.8453 179.209 46.5946C179.694 45.3439 180.096 44.0746 180.413 42.7866ZM179.629 55.2186L182.905 55.8906C182.644 57.0853 182.308 58.2613 181.897 59.4186C181.505 60.5573 181.066 61.6399 180.581 62.6666C180.096 63.6746 179.592 64.5613 179.069 65.3266C178.864 65.1399 178.584 64.9346 178.229 64.7106C177.874 64.4679 177.51 64.2439 177.137 64.0386C176.782 63.8146 176.474 63.6373 176.213 63.5066C177.016 62.5173 177.706 61.2759 178.285 59.7826C178.864 58.2893 179.312 56.7679 179.629 55.2186ZM181.029 47.7146H192.537V50.8226H179.797L181.029 47.7146ZM184.249 49.0866H187.581V65.2426C187.581 66.0266 187.497 66.6706 187.329 67.1746C187.161 67.6786 186.816 68.0706 186.293 68.3506C185.808 68.6119 185.22 68.7893 184.529 68.8826C183.857 68.9759 183.064 69.0226 182.149 69.0226C182.093 68.5186 181.944 67.9399 181.701 67.2866C181.477 66.6333 181.244 66.0826 181.001 65.6346C181.598 65.6533 182.158 65.6626 182.681 65.6626C183.222 65.6626 183.586 65.6626 183.773 65.6626C183.941 65.6626 184.062 65.6346 184.137 65.5786C184.212 65.5039 184.249 65.3733 184.249 65.1866V49.0866ZM188.589 55.9466L191.585 54.9386C192.089 55.9093 192.546 56.9453 192.957 58.0466C193.368 59.1293 193.722 60.2026 194.021 61.2666C194.32 62.3119 194.534 63.2546 194.665 64.0946L191.445 65.2146C191.333 64.3933 191.137 63.4413 190.857 62.3586C190.596 61.2759 190.269 60.1839 189.877 59.0826C189.485 57.9626 189.056 56.9173 188.589 55.9466ZM191.613 47.7146H192.061L192.593 47.6026L194.973 48.0506C194.805 49.1893 194.609 50.3653 194.385 51.5786C194.161 52.7733 193.946 53.7906 193.741 54.6306L190.885 54.0986C190.96 53.5946 191.044 53.0066 191.137 52.3346C191.23 51.6626 191.324 50.9626 191.417 50.2346C191.51 49.4879 191.576 48.7879 191.613 48.1346V47.7146ZM174.421 42.7866L177.585 43.7946C176.988 45.3626 176.278 46.9493 175.457 48.5546C174.636 50.1413 173.749 51.6533 172.797 53.0906C171.845 54.5093 170.856 55.7506 169.829 56.8146C169.736 56.5346 169.577 56.1799 169.353 55.7506C169.148 55.3026 168.924 54.8546 168.681 54.4066C168.438 53.9586 168.224 53.5946 168.037 53.3146C168.877 52.4559 169.689 51.4666 170.473 50.3466C171.276 49.2266 172.013 48.0226 172.685 46.7346C173.376 45.4466 173.954 44.1306 174.421 42.7866ZM171.733 50.5426L174.925 47.3506V47.3786V68.9386H171.733V50.5426ZM208.441 44.1026H219.837V47.1826H208.441V44.1026ZM207.489 53.8186H222.973V57.0106H207.489V53.8186ZM213.425 50.5706H216.785V65.2426C216.785 66.0826 216.682 66.7453 216.477 67.2306C216.272 67.7159 215.898 68.0893 215.357 68.3506C214.797 68.6119 214.125 68.7799 213.341 68.8546C212.576 68.9479 211.68 68.9853 210.653 68.9666C210.578 68.4999 210.42 67.9493 210.177 67.3146C209.934 66.6799 209.692 66.1293 209.449 65.6626C210.158 65.6813 210.84 65.6999 211.493 65.7186C212.146 65.7373 212.594 65.7373 212.837 65.7186C213.061 65.7186 213.21 65.6813 213.285 65.6066C213.378 65.5319 213.425 65.4013 213.425 65.2146V50.5706ZM218.605 44.1026H219.445L220.117 43.9066L222.301 45.5586C221.76 46.3799 221.144 47.2386 220.453 48.1346C219.781 49.0119 219.072 49.8613 218.325 50.6826C217.578 51.4853 216.841 52.1946 216.113 52.8106C215.889 52.5119 215.581 52.1666 215.189 51.7746C214.797 51.3826 214.461 51.0746 214.181 50.8506C214.741 50.3279 215.31 49.7026 215.889 48.9746C216.468 48.2466 216.99 47.5093 217.457 46.7626C217.942 46.0159 218.325 45.3626 218.605 44.8026V44.1026ZM196.821 48.2466H205.893V51.3826H196.821V48.2466ZM200.601 42.6746L203.737 43.0106C203.476 44.5039 203.177 46.0719 202.841 47.7146C202.524 49.3573 202.188 50.9999 201.833 52.6426C201.478 54.2666 201.124 55.8439 200.769 57.3746C200.414 58.8866 200.069 60.2679 199.733 61.5186L196.989 60.0906C197.306 58.9893 197.624 57.7293 197.941 56.3106C198.277 54.8919 198.604 53.3986 198.921 51.8306C199.238 50.2439 199.537 48.6759 199.817 47.1266C200.116 45.5586 200.377 44.0746 200.601 42.6746ZM198.473 59.6146L200.293 57.2346C201.264 57.8506 202.281 58.5413 203.345 59.3066C204.428 60.0719 205.426 60.8466 206.341 61.6306C207.274 62.4146 208.012 63.1613 208.553 63.8706L206.537 66.5866C206.014 65.8773 205.305 65.1119 204.409 64.2906C203.513 63.4506 202.542 62.6199 201.497 61.7986C200.47 60.9773 199.462 60.2493 198.473 59.6146ZM204.717 48.2466H205.277L205.865 48.1906L207.853 48.5266C207.648 52.1666 207.19 55.3119 206.481 57.9626C205.79 60.5946 204.82 62.8159 203.569 64.6266C202.337 66.4373 200.788 67.9213 198.921 69.0786C198.716 68.6679 198.417 68.1919 198.025 67.6506C197.633 67.1279 197.26 66.7173 196.905 66.4186C198.492 65.5786 199.836 64.3466 200.937 62.7226C202.038 61.0986 202.897 59.1199 203.513 56.7866C204.148 54.4533 204.549 51.8213 204.717 48.8906V48.2466Z" fill="black"/>
<line x1="35.8987" y1="31.7851" x2="108.237" y2="45.1103" stroke="black" stroke-width="3"/>
<path d="M165.399 46.6931L163.951 46.2999L163.165 49.1951L164.613 49.5882L165.399 46.6931ZM164.613 49.5882L227.751 66.7356L228.538 63.8405L165.399 46.6931L164.613 49.5882Z" fill="black"/>
</svg>
