<svg width="286" height="100" viewBox="0 0 286 100" fill="none" xmlns="http://www.w3.org/2000/svg">
<path d="M40.0316 69.4126V50.7366H53.2476V54.1526H44.0076V58.2126H53.0516V61.6286H44.0076V65.9686H53.2476V69.4126H40.0316ZM56.3558 69.4126V50.7366H69.5718V54.2366H60.3318V69.4126H56.3558ZM78.8199 50.4286C84.4479 50.4286 88.7599 54.3486 88.7599 60.0886C88.7599 65.8286 84.4479 69.7486 78.8199 69.7486C74.7039 69.7486 72.3519 67.4806 71.0359 65.1566L74.4519 63.5046C75.2359 65.0446 76.9159 66.2206 78.9039 66.2206C81.7879 66.2206 83.9439 64.3446 84.5039 61.6286H75.5719V58.2126H84.4199C83.7759 55.6926 81.6759 53.9566 78.9039 53.9566C76.9159 53.9566 75.2359 55.1606 74.4519 56.6726L71.0359 54.9926C72.3519 52.6686 74.7039 50.4286 78.8199 50.4286Z" fill="black"/>
<path d="M179.979 46.269V27.593H193.195V31.009H183.955V35.069H192.999V38.485H183.955V42.825H193.195V46.269H179.979ZM209.099 46.269V38.429H200.279V46.269H196.303V27.593H200.279V34.929H209.099V27.593H213.103V46.269H209.099ZM221.096 46.269V31.093H215.636V27.593H230.532V31.093H225.1V46.269H221.096Z" fill="black"/>
<line x1="34.6215" y1="50.8173" x2="94.5102" y2="66.3857" stroke="black" stroke-width="3"/>
<line x1="172.13" y1="28.2545" x2="235.792" y2="41.7847" stroke="black" stroke-width="3"/>
</svg>
