<svg width="25" height="25" viewBox="0 0 25 25" fill="none" xmlns="http://www.w3.org/2000/svg">
<path d="M12.0801 24.6172C10.4236 24.6172 8.87162 24.3035 7.42411 23.6762C5.9766 23.0567 4.70326 22.1971 3.60408 21.0973C2.5049 19.9976 1.64182 18.7237 1.01482 17.2755C0.395565 15.8273 0.0859375 14.2745 0.0859375 12.6172C0.0859375 10.9599 0.395565 9.40712 1.01482 7.95891C1.64182 6.50296 2.5049 5.229 3.60408 4.13703C4.70326 3.03732 5.9766 2.17769 7.42411 1.55814C8.87162 0.930837 10.4236 0.617188 12.0801 0.617188C13.7366 0.617188 15.2886 0.930837 16.7362 1.55814C18.1914 2.17769 19.4686 3.03732 20.5678 4.13703C21.667 5.229 22.5262 6.50296 23.1454 7.95891C23.7724 9.40712 24.0859 10.9599 24.0859 12.6172C24.0859 14.2745 23.7724 15.8273 23.1454 17.2755C22.5262 18.7237 21.667 19.9976 20.5678 21.0973C19.4686 22.1971 18.1914 23.0567 16.7362 23.6762C15.2886 24.3035 13.7366 24.6172 12.0801 24.6172ZM12.0917 13.1632C12.1691 13.1632 12.2504 13.1477 12.3356 13.1167C12.4207 13.078 12.5097 13.0199 12.6026 12.9425L18.3733 7.84274C18.0637 7.67237 17.6883 7.58718 17.247 7.58718H6.93645C6.47974 7.58718 6.10432 7.67237 5.81018 7.84274L11.5692 12.9425C11.6544 13.0199 11.7395 13.078 11.8247 13.1167C11.9176 13.1477 12.0066 13.1632 12.0917 13.1632ZM5.19479 16.6482L9.44443 12.3849L5.19479 8.62106C5.15609 8.69076 5.12125 8.79918 5.09029 8.94633C5.06707 9.08573 5.05546 9.24836 5.05546 9.43423V15.8002C5.05546 16.1254 5.1019 16.4081 5.19479 16.6482ZM6.7855 17.6588H17.3864C17.5876 17.6588 17.7695 17.6356 17.9321 17.5891C18.0946 17.5426 18.234 17.4884 18.3501 17.4265L13.9727 13.047L13.1948 13.744C13.0168 13.8989 12.8348 14.0151 12.6491 14.0925C12.4633 14.1622 12.2775 14.1971 12.0917 14.1971C11.8982 14.1971 11.7086 14.1622 11.5228 14.0925C11.337 14.0151 11.1551 13.8989 10.9771 13.744L10.1991 13.047L5.82179 17.4265C5.9379 17.4884 6.07723 17.5426 6.23978 17.5891C6.40234 17.6356 6.58424 17.6588 6.7855 17.6588ZM18.9771 16.6365C19.0622 16.4042 19.1048 16.1254 19.1048 15.8002V9.43423C19.1048 9.24836 19.0932 9.08573 19.07 8.94633C19.0468 8.79918 19.0158 8.69076 18.9771 8.62106L14.7158 12.3849L18.9771 16.6365Z" fill="#333333"/>
</svg>
