<svg width="286" height="100" viewBox="0 0 286 100" fill="none" xmlns="http://www.w3.org/2000/svg">
<path d="M101.515 60.39L104.35 55.62C105.97 57.105 107.68 57.915 110.335 57.915C115.15 57.915 117.85 53.82 117.85 49.275V48.645C116.41 50.67 113.395 52.515 110.11 52.515C104.71 52.515 99.85 49.185 99.85 42.795C99.85 36.945 104.53 32.49 111.37 32.49C120.46 32.49 124.285 39.51 124.285 48.015C124.285 57.06 119.2 63.495 110.335 63.495C106.69 63.495 103.63 62.28 101.515 60.39ZM117.76 44.325C117.535 41.445 115.915 38.025 111.64 38.025C108.22 38.025 106.375 40.41 106.375 42.525C106.375 45.72 109.03 47.115 111.91 47.115C114.16 47.115 116.365 46.08 117.76 44.325ZM125.878 63.9L136.543 32.085H140.683L130.018 63.9H125.878ZM149.778 63V41.22L144.828 46.305L141.183 42.48L150.633 32.985H156.213V63H149.778ZM160.718 48.015C160.718 40.275 164.543 32.535 173.138 32.535C181.688 32.535 185.558 40.275 185.558 48.015C185.558 55.755 181.688 63.54 173.138 63.54C164.543 63.54 160.718 55.755 160.718 48.015ZM179.033 48.015C179.033 42.48 177.413 38.205 173.138 38.205C168.818 38.205 167.198 42.48 167.198 48.015C167.198 53.55 168.818 57.87 173.138 57.87C177.413 57.87 179.033 53.55 179.033 48.015Z" fill="black"/>
</svg>
