<svg width="137" height="94" viewBox="0 0 137 94" fill="none" xmlns="http://www.w3.org/2000/svg">
<path d="M1.0625 6.69514C1.4671 24.7 2.9376 42.5914 5.83101 60.3652C7.17785 68.6387 8.06929 76.6716 8.06929 85.035C8.06929 90.7554 7.40377 93.5341 14.0056 92.3337C36.528 88.2388 58.9874 82.0182 82.0299 82.0182C93.5079 82.0182 105.392 81.6352 116.626 84.2565C123.071 85.7602 126.989 88.8467 127.866 80.2665C128.905 70.1074 130.105 60.5553 132.002 50.4389C133.671 41.5366 132.202 32.6543 133.51 23.8229C134.365 18.0542 133.084 11.4822 134.63 5.91661C136.368 -0.342224 132.087 2.24986 127.379 2.99711C104.264 6.66623 80.8946 7.30521 57.5061 7.57099C39.5737 7.77477 21.6245 7.57099 3.69005 7.57099" stroke="black" stroke-width="2" stroke-linecap="round"/>
<path d="M14.3986 16.7267C13.5416 21.6546 11.6757 26.0898 16.6745 29.3243C19.6713 31.2634 23.3584 32.1471 25.341 28.6576C27.1102 25.5439 27.8843 20.2982 26.6054 16.8876C26.1107 15.5685 25.2711 17.1858 25.1571 17.7842C24.311 22.2265 24.7338 27.4305 29.1341 29.945C34.5412 33.0348 41.0546 32.4188 46.3983 29.5542C48.6405 28.3522 50.3025 26.8558 50.3982 24.1749C50.4286 23.3247 50.6372 21.6268 49.8925 20.9566C48.3136 19.5355 47.0736 32.0512 51.6396 27.4852" stroke="black" stroke-width="2" stroke-linecap="round"/>
<path d="M77.7085 73.8296C77.7085 76.7269 77.3827 74.9275 78.536 73.6917C80.3366 71.7626 80.2524 68.6568 81.9383 66.4734C85.9844 61.2333 95.2951 64.6753 99.6163 67.8527C100.823 68.7399 103.089 70.3902 103.685 71.8526C104.341 73.4616 104.191 72.2471 104.191 71.163C104.191 70.1021 103.852 62.8265 104.789 63.0941C105.247 63.2252 105.005 64.7007 105.019 65.0481C105.059 66.0999 106.1 66.9158 106.237 68.0136C106.64 71.2364 107.065 69.6037 108.329 67.209C109.778 64.4635 117.621 64.9489 118.651 68.0366C119.339 70.1011 120.329 71.6191 120.329 73.8296" stroke="black" stroke-width="2" stroke-linecap="round"/>
</svg>
